<!-- Generated by IcoMoon.io -->
<svg version="1.1" xmlns="http://www.w3.org/2000/svg" width="1024" height="1024" viewBox="0 0 1024 1024">
<path fill="#fff" d="M956.789 672c2.105-10.343 3.211-21.045 3.211-32h-864c0 10.959 1.099 21.66 3.193 32h857.597zM946.655 704c-4.999 11.421-11.293 22.15-18.697 32v0l-799.957 0.094c-7.417-9.873-13.718-20.633-18.716-32.094h837.37zM572.767 320c8.275 8.109 15.923 16.854 22.866 26.157 26.849-16.586 58.49-26.157 92.367-26.157 37.677 0 72.589 11.839 101.219 32v0h-557.068c8.022-11.501 17.096-22.214 27.082-32h313.535zM531.443 288c-33.713-20.314-73.213-32-115.443-32s-81.729 11.686-115.443 32h230.886zM823.771 384c8.116 9.827 15.186 20.551 21.038 32v0h-643.533c3.288-11.048 7.405-21.739 12.28-32h610.215zM857.375 448c2.917 10.313 4.917 21.011 5.908 32v0h-671.283c0-10.865 0.774-21.549 2.268-32h663.107zM896 511.923c12.151 9.118 22.956 19.927 32.070 32.077v0h-800.028c9.105-12.113 19.889-22.896 32.005-32l735.952-0.077zM946.716 576c4.431 10.16 7.838 20.87 10.092 32v0h-857.597c2.265-11.126 5.687-21.837 10.135-32h837.37zM895.952 768c-26.729 20.084-59.944 32-95.934 32h-544.036c-36.098 0-69.354-11.907-96.085-32h736.055z"></path>
</svg>
