<!-- Generated by IcoMoon.io -->
<svg version="1.1" xmlns="http://www.w3.org/2000/svg" width="768" height="768" viewBox="0 0 768 768">
<path fill="#fff" d="M480 416v256c0 17.664 14.336 32 32 32s32-14.336 32-32v-256c0-17.664-14.336-32-32-32s-32 14.336-32 32zM224 416v256c0 17.664 14.336 32 32 32s32-14.336 32-32v-256c0-17.664-14.336-32-32-32s-32 14.336-32 32zM352 480v256c0 17.664 14.336 32 32 32s32-14.336 32-32v-256c0-17.664-14.336-32-32-32s-32 14.336-32 32zM652.832 559.872c48.544-21.28 83.936-60.256 101.792-105.984s18.304-98.368-2.944-146.912c-18.368-41.952-50.016-74.112-88.064-93.6-26.752-13.696-56.672-21.12-87.36-21.376h-16.896c-23.2-65.824-68.576-118.656-125.28-152.096-63.456-37.408-141.28-50.624-218.272-30.752s-138.688 69.152-176.096 132.608-50.624 141.28-30.752 218.272c16.288 63.040 52.288 115.936 99.168 153.056 13.856 10.976 33.984 8.64 44.96-5.216s8.64-33.984-5.216-44.96c-36.224-28.704-64.256-69.728-76.96-118.912-15.456-59.872-5.216-120.32 23.936-169.76s77.056-87.648 136.96-103.136 120.352-5.216 169.76 23.936 87.648 77.056 103.136 136.96c3.68 13.92 16.16 24 30.976 24h40.064c20.704 0.16 40.8 5.184 58.688 14.336 25.376 12.992 46.336 34.336 58.624 62.304 14.176 32.384 13.92 67.392 1.984 97.952s-35.488 56.48-67.872 70.656c-16.192 7.104-23.552 25.952-16.48 42.144s25.952 23.552 42.144 16.48z"></path>
</svg>
